<svg width="55" height="55" fill="none" xmlns="http://www.w3.org/2000/svg"><path d="M29.078 31.167a1.834 1.834 0 00-.662-.662V22h-1.833v8.505A1.827 1.827 0 1029.078 33h6.672v-1.833h-6.672z" fill="#D6190E"/><path d="M54.084 2.75H49.5V.917A.916.916 0 0048.584 0h-3.667A.916.916 0 0044 .916V2.75H11V.917A.916.916 0 0010.084 0H6.416A.916.916 0 005.5.916V2.75H.917A.916.916 0 000 3.666v50.417c0 .507.41.917.916.917h53.167c.507 0 .917-.41.917-.916V3.666a.916.916 0 00-.916-.917zm-8.25-.917h1.833v2.75h-1.834v-2.75zm-38.5 0h1.833v2.75H7.333v-2.75zm45.833 51.334H1.833V10.083h51.334v43.084zm0-44.917H1.833V4.583H5.5V5.5c0 .506.41.917.916.917h3.667c.506 0 .917-.41.917-.917v-.917h33V5.5c0 .506.41.917.916.917h3.667c.507 0 .917-.41.917-.917v-.917h3.667V8.25z" fill="#D6190E"/><path d="M48.584 12.833h-9.167a.917.917 0 00-.917.916v7.309A15.618 15.618 0 0033 17.52v-3.77a.917.917 0 00-.916-.917h-9.167a.917.917 0 00-.917.916v3.772a15.618 15.618 0 00-5.5 3.536V13.75a.917.917 0 00-.916-.917H6.416a.916.916 0 00-.917.916v7.335c0 .506.41.917.916.917h9.167c.025 0 .046-.012.07-.014a15.561 15.561 0 00-3.046 5.514h-6.19a.916.916 0 00-.917.916v7.334c0 .506.41.916.916.917h6.19a15.522 15.522 0 002.32 4.583h-8.51a.916.916 0 00-.916.916V49.5c0 .506.41.916.916.917h9.167c.506 0 .917-.41.917-.917v-6.39a15.617 15.617 0 005.5 3.535v3.772c0 .506.41.916.916.916h9.167c.506 0 .917-.41.917-.916v-3.772a15.617 15.617 0 005.5-3.535v6.39c0 .506.41.916.916.917h9.167c.506 0 .917-.41.917-.917v-7.333a.916.916 0 00-.916-.917h-8.51a15.522 15.522 0 002.32-4.583h6.19c.505 0 .916-.41.916-.917v-7.333a.916.916 0 00-.916-.917h-6.19a15.558 15.558 0 00-3.047-5.514c.024.002.045.014.07.014h9.166c.506 0 .917-.41.917-.916V13.75a.917.917 0 00-.916-.917zm-33.917 7.334H7.333v-5.5h7.334v5.5zm-2.492 14.666H7.333v-5.5h4.842a14.79 14.79 0 000 5.5zm2.492 13.75H7.333v-5.5h7.334v5.5zm25.666-5.5h7.334v5.5h-7.334v-5.5zm2.492-13.75h4.842v5.5h-4.842a14.79 14.79 0 000-5.5zM23.833 14.667h7.334v2.287a15.042 15.042 0 00-7.334 0v-2.287zM31.167 49.5h-7.334v-2.287c2.407.605 4.927.605 7.334 0V49.5zm10.037-18.333h-3.62V33h3.62a13.749 13.749 0 01-12.787 12.787V44h-1.834v1.787A13.749 13.749 0 0113.796 33h3.62v-1.833h-3.62A13.749 13.749 0 0126.583 18.38v1.787h1.834V18.38a13.749 13.749 0 0112.787 12.787zm6.463-11h-7.334v-5.5h7.334v5.5z" fill="#D6190E"/></svg>