<svg width="58" height="58" fill="none" xmlns="http://www.w3.org/2000/svg"><path d="M50.75 50.75h1.813v1.813H50.75V50.75zm-16.312 0h1.812v1.813h-1.813V50.75zm16.312-14.5h1.813v1.813H50.75V36.25z" fill="#D6190E"/><path d="M55.281 10.875H38.97a.907.907 0 00-.907.906v28.094H22.657a.907.907 0 00-.906.906v14.5a.907.907 0 00.906.907h32.625a.907.907 0 00.907-.907v-43.5a.907.907 0 00-.907-.906zm-9.968 30.813h3.624v3.624h-3.624v-3.624zm-5.438-1.813V27.187H43.5v4.532a.907.907 0 00.906.906h5.438a.907.907 0 00.906-.906v-4.532h3.625v12.688h-14.5zm5.438-12.688h3.624v3.625h-3.624v-3.625zm0-14.5h3.624v3.626h-3.624v-3.625zm-5.438 0H43.5v4.532a.907.907 0 00.906.906h5.438a.907.907 0 00.906-.906v-4.532h3.625v12.688h-14.5V12.687zM29 41.688h3.625v3.626H29v-3.626zm-5.438 0h3.625v4.532a.907.907 0 00.907.906h5.437a.907.907 0 00.907-.906v-4.532h3.624v12.688h-14.5V41.687zm30.813 12.688h-14.5V41.687H43.5v4.532a.907.907 0 00.906.906h5.438a.907.907 0 00.906-.906v-4.532h3.625v12.688z" fill="#D6190E"/><path d="M50.75 21.75h1.813v1.813H50.75V21.75zM3.625 7.25h2.719v3.625a2.718 2.718 0 105.437 0V9.062H9.97v1.813a.906.906 0 11-1.813 0V5.437a1.812 1.812 0 113.625 0H9.97V7.25h18.125v5.438a.906.906 0 00.906.906h5.438v24.468h1.812V12.689a.905.905 0 00-.265-.641L29.64 5.703a.905.905 0 00-.64-.266H13.594a3.625 3.625 0 00-7.25 0H2.719a.906.906 0 00-.906.907v45.312a.906.906 0 00.906.907h17.218V50.75H3.625V7.25zm26.281 1.282l3.25 3.25h-3.25v-3.25z" fill="#D6190E"/><path d="M8.156 29H9.97v1.813H8.156V29zm3.625 0H31.72v1.813H11.78V29zm-5.437 3.625h25.375v1.813H6.344v-1.813zm0 3.625h25.375v1.813H6.344V36.25zm0 3.625H19.03v1.813H6.344v-1.813zm0 3.625h9.062v1.813H6.344V43.5z" fill="#D6190E"/></svg>