<svg width="32" height="32" fill="none" xmlns="http://www.w3.org/2000/svg"><path d="M16 2.285c7.574 0 13.714 6.14 13.714 13.714 0 7.575-6.14 13.715-13.715 13.715-7.574 0-13.714-6.14-13.714-13.715C2.285 8.425 8.425 2.285 16 2.285zm0 2.286c-6.312 0-11.43 5.117-11.43 11.428 0 6.312 5.118 11.429 11.43 11.429 6.311 0 11.428-5.117 11.428-11.429 0-6.311-5.117-11.428-11.429-11.428zm5.655 7.218l-2.286 6.858a1.143 1.143 0 01-.722.722l-6.858 2.286a1.143 1.143 0 01-1.445-1.446l2.286-6.857c.113-.34.381-.609.722-.723l6.857-2.285a1.143 1.143 0 011.446 1.445zm-2.891 1.446l-4.147 1.382-1.382 4.147 4.147-1.382 1.382-4.147z" fill="#fff"/></svg>