<svg width="51" height="51" fill="none" xmlns="http://www.w3.org/2000/svg"><path d="M48.61 36.656h-8.766v-7.172a.797.797 0 00-.797-.797H27.094V2.392a.797.797 0 00-.797-.797H2.39a.797.797 0 00-.797.797V48.61a.797.797 0 00.797.797h46.218a.797.797 0 00.797-.797V37.453a.797.797 0 00-.797-.797zm-9.563 1.594h1.594v3.188h-1.594V38.25zm-5.578-7.969v3.188h-1.594V30.28h1.594zm-9.563 9.563H25.5v3.187h-1.594v-3.187zm-6.375-.797v8.766H3.188V3.187H25.5V38.25h-7.172a.797.797 0 00-.797.797zm1.594.797h3.188v3.984a.797.797 0 00.796.797h3.188a.797.797 0 00.797-.797v-3.984h3.187v7.968H19.125v-7.968zm11.156-2.39v.796h-3.187v-7.969h3.187v3.985a.797.797 0 00.797.797h3.188a.797.797 0 00.797-.797V30.28h3.187v6.375h-7.172a.797.797 0 00-.797.797zm17.532 10.358H31.874V38.25h5.578v3.984a.797.797 0 00.797.797h3.188a.797.797 0 00.796-.797V38.25h5.578v9.563z" fill="#D6190E"/><path d="M22.313 11.953V7.172a.797.797 0 00-.797-.797H7.172a.797.797 0 00-.797.797v4.781a.797.797 0 00.797.797h14.344a.797.797 0 00.797-.797zm-1.594-.797H7.969V7.97h12.75v3.187zm3.187 15.141a2.391 2.391 0 10-4.782 0 2.391 2.391 0 004.782 0zm-2.39.797a.797.797 0 110-1.594.797.797 0 010 1.594zM35.86 44.625h-1.594a.797.797 0 000 1.594h1.593a.797.797 0 000-1.594z" fill="#D6190E"/></svg>