<svg width="58" height="57" fill="none" xmlns="http://www.w3.org/2000/svg"><path d="M15.406 49.875h-1.812v1.781h1.812v-1.781z" fill="#D6190E"/><path d="M34.438 39.188H19.03v-13.36a.883.883 0 00-.265-.63.914.914 0 00-.641-.26H1.812c-.24 0-.47.093-.64.26a.883.883 0 00-.266.63v28.5c0 .236.096.463.266.63.17.167.4.26.64.26h32.626c.24 0 .47-.093.64-.26a.883.883 0 00.266-.63v-14.25a.883.883 0 00-.266-.63.914.914 0 00-.64-.26zm-9.97 1.78h3.626v3.563h-3.625V40.97zM8.157 26.719h3.625v3.563H8.156V26.72zm-5.437 0h3.625v4.454c0 .236.095.463.265.63.17.167.4.26.641.26h5.438c.24 0 .47-.093.64-.26a.883.883 0 00.266-.63V26.72h3.625v12.468H2.72V26.72zm5.437 14.25h3.625v3.563H8.156V40.97zm-5.437 0h3.625v4.454c0 .236.095.463.265.63.17.167.4.26.641.26h5.438c.24 0 .47-.093.64-.26a.883.883 0 00.266-.63V40.97h3.625v12.468H2.72V40.97zm30.812 12.47h-14.5v-12.47h3.625v4.454c0 .236.096.463.266.63.17.167.4.26.64.26H29c.24 0 .47-.093.64-.26a.883.883 0 00.266-.63V40.97h3.625v12.468z" fill="#D6190E"/><path d="M31.719 49.875h-1.813v1.781h1.813v-1.781zm-16.313-14.25h-1.812v1.781h1.812v-1.781z" fill="#D6190E"/><path d="M54.164 12.444a.91.91 0 00.666-.094.902.902 0 00.332-.325.904.904 0 00.121-.467V8.016a.88.88 0 00-.194-.551.908.908 0 00-.5-.315L28.31.916a.918.918 0 00-.426 0L1.602 7.15a.908.908 0 00-.5.315.88.88 0 00-.194.55v3.538a.915.915 0 00.156.525.922.922 0 00.963.366l1.6-.38v11.092H5.44V11.634L28.096 6.26l22.656 5.374v41.803h-5.437V18.703a.883.883 0 00-.266-.63.914.914 0 00-.64-.26H11.782c-.24 0-.47.093-.64.26a.883.883 0 00-.266.63v3.563c0 .236.096.462.265.63a.92.92 0 00.641.26h31.72v1.782H20.845v1.78h22.656V28.5H20.846v1.781h22.656v1.782H20.846v1.78h22.656v19.594h-6.344v1.782h18.125v-1.782h-2.718V12.065l1.6.38zM12.69 21.375v-1.781h30.812v1.781H12.69zM28.096 4.453a.914.914 0 00-.213.025L2.721 10.447v-1.73l25.375-6.02 25.375 6.02v1.73L28.309 4.478a.915.915 0 00-.213-.025z" fill="#D6190E"/><path d="M29.906 15.14a2.74 2.74 0 001.923-.782c.51-.501.796-1.18.796-1.89a2.65 2.65 0 00-.796-1.889 2.743 2.743 0 00-1.923-.782h-3.625c-.72 0-1.412.281-1.922.782a2.649 2.649 0 00-.797 1.89c0 .708.287 1.388.797 1.89.51.5 1.201.782 1.922.782h3.625zm-4.531-2.671c0-.236.096-.463.266-.63.17-.167.4-.26.64-.26h3.625c.24 0 .471.093.641.26a.883.883 0 010 1.26c-.17.166-.4.26-.64.26H26.28a.916.916 0 01-.64-.26.884.884 0 01-.266-.63z" fill="#D6190E"/></svg>