<svg width="32" height="32" fill="none" xmlns="http://www.w3.org/2000/svg"><path d="M15.667 1.753a1.572 1.572 0 011.188 1.879c-.088.39-.208.715-.384.986-2.469 3.813-2.072 6.328-.424 6.571 1.61.239 2.51-.791 2.251-3.188a654.7 654.7 0 01-.153-1.424 1.537 1.537 0 012.375-1.445c.851.56 1.806 1.516 2.896 2.876 3.096 3.862 4.053 7.239 4.01 10.696-.08 6.442-4.883 11.01-11.428 11.01-6.572 0-11.428-4.596-11.428-11.03.034-5.692 3.132-11.875 8.928-16.01.224-.16.52-.377.888-.65a1.571 1.571 0 011.281-.27zM13.291 5.74c-4.195 3.628-6.409 8.502-6.435 12.95 0 5.137 3.805 8.74 9.142 8.74 5.312 0 9.078-3.584 9.142-8.755.037-2.964-.774-5.828-3.508-9.237-.363-.453-.704-.85-1.022-1.19.187 3.506-1.843 5.654-4.898 5.202-3.093-.457-4.094-3.716-2.42-7.71z" fill="#fff"/></svg>