<svg width="59" height="59" fill="none" xmlns="http://www.w3.org/2000/svg"><path d="M27.656 46.69V23.727l22.125-6.808v10.736h1.844V15.672a.922.922 0 00-.65-.881l-23.97-7.375a.922.922 0 00-.542 0L2.494 14.79a.922.922 0 00-.65.88v24.892a.922.922 0 00.65.88l23.97 7.376a.921.921 0 00.542 0l5.53-1.702-.542-1.762-4.338 1.334zm-.922-24.608l-4.653-1.431 20.546-6.5 4.942 1.52-20.835 6.411zm-12.473-3.838l20.178-6.612 5.09 1.566-20.547 6.5-4.72-1.454zm3.704 3.07l-1.214 8.76-3.89-1.198-.634-9.328 5.738 1.765zm8.77-12.053l4.65 1.432-20.177 6.612L5.9 15.672l20.834-6.41zM3.687 16.92l6.652 2.047.725 10.667a.922.922 0 00.648.818l5.531 1.702a.921.921 0 001.185-.755l1.321-9.537 6.063 1.866v22.961L3.688 39.882V16.92z" fill="#D6190E"/><path d="M14.486 41.437l.542-1.762 1.844.567-.541 1.763-1.845-.568zm3.688 1.134l.542-1.762 1.844.567-.542 1.762-1.844-.567zm3.687 1.135l.542-1.763 1.845.567-.543 1.763-1.844-.567zM41.213 9.849l.542-1.763 1.844.567-.542 1.763-1.844-.567zM26.192 5.57a1.839 1.839 0 011.085 0L39.37 9.291l.542-1.762-12.094-3.721a3.673 3.673 0 00-2.168 0L14.479 7.245l.542 1.762L26.192 5.57zM55.313 29.5H36.874a2.769 2.769 0 00-2.766 2.766v18.437a.921.921 0 00.458.796l11.062 6.453a.922.922 0 00.93 0L57.62 51.5a.922.922 0 00.457-.796V32.266a2.769 2.769 0 00-2.766-2.766zm.921 20.673l-10.14 5.915-10.14-5.915V32.266a.923.923 0 01.921-.922h18.438a.923.923 0 01.921.922v17.907z" fill="#D6190E"/><path d="M53.469 33.188h-14.75a.922.922 0 00-.922.921v14.476a.921.921 0 00.457.796l7.375 4.303a.921.921 0 00.93 0l7.374-4.303a.921.921 0 00.458-.796V34.11a.922.922 0 00-.922-.922zm-.922 9.218h-5.531v-7.375h5.53v7.375zm-7.375-7.375v7.375H39.64v-7.375h5.53zM39.64 44.25h5.53v7.032l-5.53-3.226V44.25zm7.375 7.032V44.25h5.53v3.806l-5.53 3.226z" fill="#D6190E"/></svg>