<svg width="56" height="56" fill="none" xmlns="http://www.w3.org/2000/svg"><path d="M28.875 55.125h26.25v-21h-26.25v21zm10.5-19.25h5.25v1.75h-5.25v-1.75zm-8.75 0h7v3.5h8.75v-3.5h7v17.5h-22.75v-17.5z" fill="#D6190E"/><path d="M49.875 49.875h1.75v1.75h-1.75v-1.75zm-3.5 0h1.75v1.75h-1.75v-1.75zm-3.5 0h1.75v1.75h-1.75v-1.75zm10.5-31.5h-1.75V.875h-22.75v17.5h-1.75V.875H4.375v17.5h-1.75c-.965 0-1.75.785-1.75 1.75v1.75c0 .965.785 1.75 1.75 1.75H7.23a6.959 6.959 0 00-.23 1.75 6.997 6.997 0 003.137 5.832C4.779 32.86.875 37.857.875 43.75A4.377 4.377 0 003.5 47.754v7.371h23.625V43.75c0-5.893-3.904-10.89-9.262-12.543A6.997 6.997 0 0021 25.375a6.96 6.96 0 00-.23-1.75h32.605c.965 0 1.75-.785 1.75-1.75v-1.75c0-.965-.785-1.75-1.75-1.75zm-15.75-15.75h5.25v1.75h-5.25v-1.75zm-7 0h5.25v3.5h8.75v-3.5h5.25v15.75h-5.25v-3.5h-8.75v3.5h-5.25V2.625zm12.25 15.75h-5.25v-1.75h5.25v1.75zm-29.75-15.75h5.25v1.75h-5.25v-1.75zm-7 0h5.25v3.5h8.75v-3.5h5.25v15.75h-5.25v-3.5h-8.75v3.5h-5.25V2.625zm7 15.75v-1.75h5.25v1.75h-5.25zm-10.5 3.5v-1.75h6.76a7.06 7.06 0 00-1.438 1.75H2.625zm2.625 26.25h3.5v5.25h-3.5v-5.25zM13.563 42H10.5v-4.375h6.125V42H21v11.375H10.5v-5.25h3.063a3.066 3.066 0 003.062-3.063A3.066 3.066 0 0013.562 42zm4.812-3.138l1.388 1.388h-1.388v-1.388zm7 4.888v9.625H22.75V40.763l-4.888-4.888H8.75V42H6.125v1.75h7.438c.723 0 1.312.589 1.312 1.313 0 .723-.589 1.312-1.313 1.312H5.25a2.628 2.628 0 01-2.625-2.625c0-6.272 5.103-11.375 11.375-11.375s11.375 5.103 11.375 11.375zM14 30.625a5.255 5.255 0 01-5.25-5.25 5.255 5.255 0 015.25-5.25 5.255 5.255 0 015.25 5.25 5.255 5.255 0 01-5.25 5.25zm39.375-8.75H20.053a7.038 7.038 0 00-1.438-1.75h34.76v1.75zm-10.5 24.5h8.75v1.75h-8.75v-1.75z" fill="#D6190E"/></svg>