<svg width="56" height="56" fill="none" xmlns="http://www.w3.org/2000/svg"><path d="M54.868 9.88L46.12 1.133a.87.87 0 00-.62-.257H22.75a.875.875 0 00-.875.875v29.742l-7.441-4.252a.873.873 0 00-.868 0l-12.25 7a.874.874 0 00-.441.76v12.25c0 .314.168.604.441.76l12.25 7a.872.872 0 00.868 0l12.25-7a.874.874 0 00.441-.76v-2.625h17.5v7c0 1.93 1.57 3.5 3.5 3.5s3.5-1.57 3.5-3.5v-7h2.625a.875.875 0 00.875-.875V10.5a.87.87 0 00-.257-.62zm-8.493-6.018l5.763 5.763h-5.763V3.862zM14 29.008L24.486 35l-2.72 1.555-10.486-5.992L14 29.008zm4.809 9.607L7.997 32.438l1.519-.867L21 38.132v3.327l-1.75.875v-2.959a.874.874 0 00-.441-.76zm-12.575-5.17l10.487 5.992L14 40.992 3.514 35l2.72-1.555zm-3.609 3.063l10.5 6v10.234l-10.5-6V36.508zm12.25 16.234V42.508l2.625-1.5v2.742a.876.876 0 001.266.783l3.5-1.75A.876.876 0 0022.75 42v-3.992l2.625-1.5v10.234l-10.5 6zM47.25 30.218v17.907h-.875v-18.49l.875.583zm1.75 0l.875-.584v18.491H49V30.218zm-.875-1.52l-1.562-1.041 1.562-4.165 1.562 4.165-1.562 1.041zm0 24.677c-.965 0-1.75-.785-1.75-1.75v-1.75h3.5v1.75c0 .965-.785 1.75-1.75 1.75zm5.25-10.5h-1.75V28a.876.876 0 00-.055-.307l-2.625-7a.877.877 0 00-1.64 0l-2.625 7a.876.876 0 00-.055.307v14.875h-17.5V35a.874.874 0 00-.441-.76l-3.059-1.748V2.625h21V10.5c0 .483.391.875.875.875h7.875v31.5z" fill="#D6190E"/><path d="M25.375 13.125h1.75v1.75h-1.75v-1.75zm3.5 0h22.75v1.75h-22.75v-1.75zm21 3.5h1.75v1.75h-1.75v-1.75zm-24.5 0h22.75v1.75h-22.75v-1.75zm0 3.5h17.5v1.75h-17.5v-1.75zm0 3.5h17.5v1.75h-17.5v-1.75z" fill="#D6190E"/></svg>