<svg width="60" height="60" fill="none" xmlns="http://www.w3.org/2000/svg"><path d="M15 52.5h1.875v1.875H15V52.5zm0-16.875h1.875V37.5H15v-1.875z" fill="#D6190E"/><path d="M19.688 5.625H2.813a.937.937 0 00-.938.938v50.624a.937.937 0 00.938.938h16.875a.938.938 0 00.937-.938V6.563a.938.938 0 00-.938-.938zM9.374 7.5h3.75v3.75h-3.75V7.5zM7.5 7.5v4.688a.937.937 0 00.938.937h5.624a.938.938 0 00.938-.938V7.5h3.75v15h-15v-15H7.5zm1.875 33.75h3.75V45h-3.75v-3.75zM3.75 39.375v-15H7.5v4.688a.937.937 0 00.938.937h5.624a.938.938 0 00.938-.938v-4.687h3.75v15h-15zm5.625-15h3.75v3.75h-3.75v-3.75zM3.75 56.25v-15H7.5v4.688a.937.937 0 00.938.937h5.624a.938.938 0 00.938-.938V41.25h3.75v15h-15z" fill="#D6190E"/><path d="M15 18.75h1.875v1.875H15V18.75zm39.375 17.813h-1.019l-.767-8.438h1.786a.938.938 0 00.938-.938v-3.75a.937.937 0 00-.835-.931l-16.04-1.783v-6.66a.938.938 0 00-.938-.938h-15V15h14.063v22.5H22.5v1.875h5.625v11.25H22.5V52.5h14.13a6.562 6.562 0 0012.99 0h7.568a.938.938 0 00.937-.938v-11.25a3.754 3.754 0 00-3.75-3.75zm1.875 3.75v.937h-1.875v-2.813a1.877 1.877 0 011.875 1.876zm-4.777-3.75h-7.41v-8.438h6.643l.767 8.438zM30 39.374h7.5a.938.938 0 00.938-.938V22.61l15 1.667v1.973H43.124a.938.938 0 00-.938.938v14.105a10.33 10.33 0 00-9.331 9.332H30v-11.25zM43.125 45a6.572 6.572 0 00-6.494 5.625h-1.89a8.436 8.436 0 0116.768 0h-1.89A6.572 6.572 0 0043.125 45zm0 11.25a4.687 4.687 0 110-9.374 4.687 4.687 0 010 9.374zm10.27-5.625a10.33 10.33 0 00-9.333-9.332v-2.855H52.5v3.75a.938.938 0 00.938.937h2.812V45h-1.875v1.875h1.875v3.75h-2.855z" fill="#D6190E"/><path d="M31.875 16.875h1.875v18.75h-1.875v-18.75zm-3.75 0H30v18.75h-1.875v-18.75zm-3.75 0h1.875v18.75h-1.875v-18.75zm18.75 31.875a2.813 2.813 0 100 5.625 2.813 2.813 0 000-5.625zm0 3.75a.937.937 0 110-1.875.937.937 0 010 1.875z" fill="#D6190E"/></svg>