<svg width="63" height="63" fill="none" xmlns="http://www.w3.org/2000/svg"><path d="M10.828 41.344H7.875a.984.984 0 00-.984.984v2.953a.984.984 0 00.984.985h2.953a.984.984 0 00.985-.985v-2.953a.984.984 0 00-.985-.984zm-.984 2.953h-.985v-.984h.985v.984zm6.89-2.953h-2.953a.984.984 0 000 1.968h2.953a.984.984 0 000-1.968zm-1.968 2.953h-.985a.984.984 0 000 1.969h.985a.984.984 0 100-1.97zm1.968-19.687a.984.984 0 00-.984-.985h-2.953a.984.984 0 00-.985.984v2.953a.984.984 0 00.985.985h2.953a.984.984 0 00.984-.985V24.61zm-1.968 1.968h-.985v-.984h.985v.984zm3.937-.984h2.953a.985.985 0 000-1.969h-2.953a.984.984 0 000 1.969zm0 2.953h.985a.984.984 0 100-1.969h-.985a.984.984 0 000 1.969zm9.844 12.797h-2.953a.984.984 0 00-.985.984v2.953a.984.984 0 00.985.985h2.953a.984.984 0 00.984-.985v-2.953a.984.984 0 00-.984-.984zm-.985 2.953h-.984v-.984h.985v.984zm6.891-2.953H31.5a.984.984 0 100 1.968h2.953a.984.984 0 100-1.968zm-1.969 2.953H31.5a.984.984 0 100 1.969h.984a.984.984 0 000-1.97z" fill="#D6190E"/><path d="M59.063 5.906h-15.75a.984.984 0 00-.985.985V47.25h-.984V31.5a1.972 1.972 0 00-1.969-1.969H28.547v-15.75a1.971 1.971 0 00-1.969-1.969h-15.75a1.971 1.971 0 00-1.969 1.97v15.75H5.906A1.972 1.972 0 003.938 31.5v15.75h-1.97a.984.984 0 00-.984.984v3.938a.984.984 0 00.985.984h2.957a4.922 4.922 0 105.898 0H37.41a4.922 4.922 0 105.899 0h3.941a.984.984 0 00.984-.984v-40.36h10.828a2.953 2.953 0 100-5.906zM29.53 31.5h3.938v5.051l-1.423-.949a.988.988 0 00-1.092 0l-1.423.95V31.5zm-1.448 7.758a.983.983 0 001.01-.048l2.407-1.604 2.407 1.604a.988.988 0 001.242-.124.986.986 0 00.288-.695V31.5h3.938l.001 15.75h-15.75V31.5h3.938v6.89a.982.982 0 00.52.868zM16.734 13.781h3.938v5.051l-1.422-.948a.988.988 0 00-1.093 0l-1.423.948v-5.05zm-5.906 0h3.938v6.89a.986.986 0 001.53.82l2.407-1.604 2.407 1.604a.988.988 0 001.242-.124.986.986 0 00.289-.695v-6.89h3.937l.001 15.75H10.83v-15.75zM15.75 31.5v5.051l-1.422-.949a.988.988 0 00-1.093 0l-1.422.95V31.5h3.937zm-9.844 0h3.938v6.89a.986.986 0 001.53.82l2.407-1.604 2.407 1.604a.988.988 0 001.242-.124.986.986 0 00.289-.695V31.5h3.937v15.75H5.906V31.5zm4.922 25.594a2.953 2.953 0 11-5.906 0 2.953 2.953 0 015.906 0zm32.484 0a2.953 2.953 0 11-5.906 0 2.953 2.953 0 015.907 0zm2.954-5.907H2.953V49.22h40.36a.984.984 0 00.984-.985V7.875h1.969v43.313zM59.063 9.844h-10.83V7.875h10.828a.984.984 0 110 1.969z" fill="#D6190E"/></svg>