<svg width="30" height="30" fill="none" xmlns="http://www.w3.org/2000/svg"><path d="M19.02 2.298v7.786h7.785M28.103 1l-9.084 9.084m7.789 11.576v3.892a2.594 2.594 0 01-2.829 2.595 25.681 25.681 0 01-11.199-3.983 25.305 25.305 0 01-7.786-7.786A25.68 25.68 0 011.011 5.127a2.595 2.595 0 012.582-2.829h3.893A2.595 2.595 0 0110.08 4.53a16.71 16.71 0 00.909 3.646 2.595 2.595 0 01-.584 2.738l-1.648 1.649a20.763 20.763 0 007.786 7.785l1.648-1.648a2.595 2.595 0 012.738-.584c1.177.44 2.4.744 3.646.909a2.596 2.596 0 012.232 2.634z" stroke="#616161" stroke-width="2" stroke-linecap="round" stroke-linejoin="round"/></svg>