<svg width="32" height="32" fill="none" xmlns="http://www.w3.org/2000/svg"><path d="M27.093 11.041c1.673 1.66 2.621 3.813 2.621 6.101 0 1.45-.38 2.852-1.097 4.113.115.69.448 1.736 1 3.104l.296.713.065.192.029.112a1.6 1.6 0 01-1.653 1.914c-2.18-.114-3.92-.646-5.188-1.627-1.18.409-2.443.622-3.738.622a11.42 11.42 0 01-3.808-.646 1.143 1.143 0 11.763-2.155 9.123 9.123 0 003.045.515 9.07 9.07 0 003.528-.702c.43-.182.928-.084 1.257.248.628.634 1.567 1.076 2.836 1.304l.324.053c-.655-1.664-1.015-2.92-1.077-3.821a1.143 1.143 0 01.174-.69c.627-.99.958-2.098.958-3.249 0-1.662-.693-3.236-1.945-4.478a1.143 1.143 0 111.61-1.623zM12.57 3.428c5.65 0 10.286 4.057 10.286 9.143s-4.637 9.142-10.286 9.142c-1.295 0-2.557-.213-3.737-.621-1.269.98-3.008 1.512-5.189 1.627a1.6 1.6 0 01-1.652-1.914l.028-.112.065-.192.153-.365c.589-1.42.958-2.524 1.11-3.273l.034-.18-.172-.318a8.261 8.261 0 01-.926-3.794c0-5.086 4.637-9.143 10.286-9.143zm0 2.285c-4.45 0-8 3.107-8 6.858 0 1.15.331 2.258.958 3.248.13.206.192.448.175.69-.058.837-.372 1.98-.942 3.471l-.136.35.324-.052c1.269-.228 2.208-.67 2.836-1.304.33-.332.827-.43 1.257-.249a9.055 9.055 0 003.528.703c4.45 0 8-3.107 8-6.857 0-3.751-3.55-6.858-8-6.858z" fill="#fff"/></svg>