<svg width="62" height="54" fill="none" xmlns="http://www.w3.org/2000/svg"><path d="M59.9 34.126l-3.875-5.063a.934.934 0 00-.35-.276c-.14-.065-.297-.1-.456-.1h-31c-.16 0-.317.035-.457.1a.935.935 0 00-.35.276l-3.874 5.063a.757.757 0 00-.048.866.908.908 0 00.356.326c.15.078.322.12.498.12h2.906v15.187h-1.938v1.688h36.813v-1.688h-1.938V35.437h2.907c.175 0 .347-.041.498-.12a.909.909 0 00.356-.325.756.756 0 00-.048-.866zm-35.163-3.751h9.297L31.45 33.75h-9.296l2.583-3.375zm.45 5.063h6.782c.16 0 .316-.035.457-.1.14-.066.26-.16.349-.276l2.1-2.744v18.307h-9.688V35.437zM54.25 50.624H36.812V32.318l2.1 2.744c.09.115.21.21.35.276.14.065.297.1.457.1H54.25v15.187zM40.237 33.75l-2.583-3.375H54.7l2.584 3.375H40.237z" fill="#D6190E"/><path d="M50.375 47.25h1.938v1.688h-1.938V47.25zm-3.875 0h1.938v1.688H46.5V47.25zm-7.412-25.516l6.782 5.063c.175.131.399.203.63.203.231 0 .455-.072.63-.203l6.782-5.063a.866.866 0 00.25-.288.753.753 0 00.088-.352v-2.532a.793.793 0 00-.284-.596 1.046 1.046 0 00-.685-.247h-2.906V5.906h-1.938v12.657c0 .223.103.438.284.596.182.158.428.247.685.247h2.907v1.3L46.5 25.045l-5.813-4.34v-1.299h2.907c.257 0 .503-.089.685-.247a.793.793 0 00.283-.596V5.905h-1.937V17.72h-2.906c-.257 0-.504.089-.685.247a.793.793 0 00-.284.596v2.532c0 .121.03.242.089.352.058.11.143.21.25.288zM3.875 4.219h31V27h1.938V3.375a.793.793 0 00-.284-.597 1.046 1.046 0 00-.685-.247H2.906c-.257 0-.503.09-.685.247a.793.793 0 00-.284.597v44.719c0 .224.103.438.284.596.182.159.428.248.685.248H20.29V47.25H3.875V4.219z" fill="#D6190E"/><path d="M15.784 5.31L13.16 7.594H7.75c-.257 0-.503.089-.685.247a.793.793 0 00-.284.596V13.5c0 .224.102.438.284.597.182.158.428.247.685.247h5.813c.256 0 .503-.09.684-.247a.792.792 0 00.284-.597V8.787l2.623-2.284-1.37-1.193zm-3.19 7.346H8.719V9.281h2.505L9.97 10.372l1.37 1.193 1.253-1.09v2.181zm5.812-4.218h1.938v1.687h-1.938V8.437zm3.875 0h9.688v1.687H22.28V8.437zm-3.875 3.375H31.97V13.5H18.406v-1.688zm-2.622 3.622l-2.623 2.284H7.75c-.257 0-.503.089-.685.247a.792.792 0 00-.284.596v5.063c0 .224.102.438.284.597.182.158.428.247.685.247h5.813c.256 0 .503-.09.684-.247a.792.792 0 00.284-.597v-4.713l2.623-2.284-1.37-1.193zm-3.19 7.346H8.719v-3.375h2.505L9.97 20.497l1.37 1.193 1.253-1.09v2.181zm5.812-4.218h1.938v1.687h-1.938v-1.688zm3.875 0h9.688v1.687H22.28v-1.688zm-3.875 3.375H31.97v1.687H18.406v-1.688zm-2.622 3.622l-2.623 2.284H7.75c-.257 0-.503.089-.685.247a.792.792 0 00-.284.596v5.063c0 .224.102.438.284.597.182.158.428.247.685.247h5.813c.256 0 .503-.09.684-.247a.792.792 0 00.284-.597v-4.713l2.623-2.284-1.37-1.193zm-3.19 7.346H8.719v-3.375h2.505L9.97 30.622l1.37 1.193 1.253-1.09v2.181zm5.812-4.218h1.938v1.687h-1.938v-1.688zM7.75 37.969c-.257 0-.503.089-.685.247a.793.793 0 00-.284.596v5.063c0 .224.102.438.284.597.182.158.428.247.685.247h5.813c.256 0 .503-.09.684-.247a.793.793 0 00.284-.597v-4.713l2.623-2.284-1.37-1.193-2.623 2.284H7.75zm4.844 5.062H8.719v-3.375h2.505L9.97 40.747l1.37 1.193 1.253-1.09v2.181zm5.812-4.218h1.938V40.5h-1.938v-1.688zm0 3.375h2.907v1.687h-2.907v-1.688z" fill="#D6190E"/></svg>