<svg width="55" height="55" fill="none" xmlns="http://www.w3.org/2000/svg"><g clip-path="url(#clip0)"><path d="M55 19.708v-1.833h-3.667V5.042a.916.916 0 00-.916-.917H30.25a.916.916 0 00-.917.916v12.834h-2.75V5.042a.916.916 0 00-.916-.917H5.5a.916.916 0 00-.917.916v12.834h-2.75V.458H0v53.167c0 .506.41.916.916.917H55v-1.834h-3.667V39.875a.916.916 0 00-.916-.917H30.25a.917.917 0 00-.917.916v12.834h-2.75V39.875a.917.917 0 00-.916-.917H5.5a.916.916 0 00-.917.916v12.834h-2.75V37.125H55v-1.833h-3.667V22.458a.917.917 0 00-.916-.916H30.25a.917.917 0 00-.917.916v12.834h-2.75V22.458a.917.917 0 00-.916-.916H5.5a.917.917 0 00-.917.916v12.834h-2.75V19.708H55zM38.5 5.958h3.667v3.667H38.5V5.958zm-7.333 0h5.5v4.584c0 .506.41.916.916.916h5.5c.506 0 .917-.41.917-.916V5.958h5.5v11.917H31.167V5.958zm-17.417 0h3.667v3.667H13.75V5.958zm-7.333 0h5.5v4.584c0 .506.41.916.916.916h5.5c.506 0 .917-.41.917-.916V5.958h5.5v11.917H6.417V5.958zM38.5 40.792h3.667v3.666H38.5v-3.666zm-7.333 0h5.5v4.583c0 .506.41.916.916.917h5.5c.506 0 .917-.41.917-.917v-4.583h5.5v11.916H31.167V40.792zm-17.417 0h3.667v3.666H13.75v-3.666zm-7.333 0h5.5v4.583c0 .506.41.916.916.917h5.5c.506 0 .917-.41.917-.917v-4.583h5.5v11.916H6.417V40.792zm32.083-16.5h3.667v3.666H38.5v-3.666zm-7.333-.917h5.5v5.5c0 .506.41.916.916.917h5.5c.506 0 .917-.41.917-.917v-5.5h5.5v11.917H31.167V23.375zm-17.417 0h3.667v3.667H13.75v-3.667zm-7.333 0h5.5v4.583c0 .506.41.917.916.917h5.5c.506 0 .917-.41.917-.916v-4.584h5.5v11.917H6.417V23.375z" fill="#D6190E"/></g><defs><clipPath id="clip0"><path fill="#fff" d="M0 0h55v55H0z"/></clipPath></defs></svg>