<svg width="53" height="53" fill="none" xmlns="http://www.w3.org/2000/svg"><path d="M52.28 14.861a.766.766 0 00-.362-.461L26.53.099a.766.766 0 00-.752 0L10.77 8.552a.766.766 0 10.752 1.335l14.63-8.241 24.345 13.713-.944 1.676L26.53 4.065a.766.766 0 00-.752 0L2.754 17.035l-.944-1.676 6.596-3.716a.766.766 0 00-.752-1.335L.39 14.4a.766.766 0 00-.29 1.044l1.696 3.01c.208.37.675.5 1.044.292l1.605-.904V40.46H3.167a.766.766 0 00-.766.766v3.454c0 .424.343.767.766.767h15.34a.766.766 0 100-1.533H3.934v-1.922h13.822a.766.766 0 100-1.532H5.977V16.979L26.154 5.612 46.33 16.98v6.582a.766.766 0 101.533 0v-5.72l1.605.905a.762.762 0 001.044-.291l1.696-3.011a.765.765 0 00.07-.583zM49.14 40.46h-1.277V27.07a.766.766 0 10-1.532 0v13.39H34.526a.766.766 0 100 1.533h13.848v1.922H33.706a.766.766 0 100 1.532H49.14a.766.766 0 00.766-.766v-3.455a.766.766 0 00-.766-.766z" fill="#C1C1C1"/><path d="M9.008 28.969h5.745a.766.766 0 00.767-.767v-5.744a.766.766 0 00-.767-.766H9.008a.766.766 0 00-.766.766v5.745c0 .423.343.766.766.766zm.767-5.745h1.34v.713a.766.766 0 001.532 0v-.713h1.34v4.212H9.775v-4.212zm7.957 4.979c0 .423.344.766.767.766h5.745a.766.766 0 00.766-.767v-5.744a.766.766 0 00-.766-.766h-5.745a.766.766 0 00-.767.766v5.745zm1.533-4.979h1.34v.713a.766.766 0 101.532 0v-.713h1.34v4.212h-4.212v-4.212zm7.96 4.979c0 .423.343.766.766.766h5.745a.766.766 0 00.766-.767v-5.744a.766.766 0 00-.766-.766H27.99a.766.766 0 00-.766.766v5.745zm1.532-4.979h1.34v.713a.766.766 0 001.533 0v-.713h1.34v4.212h-4.213v-4.212zm14.469-1.532h-5.745a.766.766 0 00-.766.766v5.745c0 .423.343.766.766.766h5.745a.766.766 0 00.766-.766v-5.745a.766.766 0 00-.766-.766zm-.766 5.744h-4.213v-4.212h1.34v.713a.766.766 0 101.533 0v-.713h1.34v4.212zM9.046 37.99h5.745a.766.766 0 00.766-.766v-5.745a.766.766 0 00-.767-.766H9.046a.766.766 0 00-.767.766v5.745c0 .423.343.766.767.766zm.766-5.744h1.34v.713a.766.766 0 101.532 0v-.713h1.34v4.212H9.812v-4.212zm33.451-1.533h-5.745a.766.766 0 00-.766.767v5.744c0 .423.343.766.766.766h5.745a.766.766 0 00.766-.766V31.48a.766.766 0 00-.766-.767zm-.766 5.745h-4.213v-4.212h1.34v.713a.766.766 0 101.533 0v-.713h1.34v4.212zM18.499 19.722h5.745a.766.766 0 00.766-.766V13.21a.766.766 0 00-.766-.766h-5.745a.766.766 0 00-.767.766v5.745c0 .423.344.766.767.766zm.766-5.744h1.34v.713a.766.766 0 101.532 0v-.713h1.34v4.212h-4.212v-4.212zm8.725 5.744h5.746a.766.766 0 00.766-.766V13.21a.766.766 0 00-.766-.766H27.99a.766.766 0 00-.766.766v5.745c0 .423.343.766.766.766zm.767-5.744h1.34v.713a.766.766 0 001.533 0v-.713h1.34v4.212h-4.213v-4.212zm-2.604 28.215a2.888 2.888 0 002.886-2.884 2.888 2.888 0 00-2.886-2.884 2.888 2.888 0 00-2.885 2.884 2.888 2.888 0 002.885 2.884zm0-4.236c.746 0 1.353.607 1.353 1.352a1.354 1.354 0 01-2.706 0c0-.745.607-1.352 1.353-1.352z" fill="#C1C1C1"/><path d="M26.154 33.01a6.23 6.23 0 00-6.224 6.221c0 1.462.253 2.99.752 4.543a.767.767 0 001.46-.47c-.451-1.4-.68-2.77-.68-4.073a4.695 4.695 0 014.692-4.688 4.695 4.695 0 014.692 4.688c0 4.997-3.346 9.527-4.693 11.148a24.06 24.06 0 01-2.703-4.015.766.766 0 00-1.353.72c1.575 2.961 3.426 4.906 3.504 4.987a.766.766 0 001.106 0c.232-.24 5.672-5.99 5.672-12.84 0-3.43-2.793-6.22-6.225-6.22z" fill="#C1C1C1"/></svg>