<svg width="74" height="54" fill="none" xmlns="http://www.w3.org/2000/svg"><path d="M72.383 2.128a1.07 1.07 0 001.075-1.064A1.07 1.07 0 0072.383 0h-7.348a1.07 1.07 0 00-1.074 1.064c0 .588.48 1.064 1.074 1.064h4.19v23.55H46.23a1.07 1.07 0 00-1.075 1.064 1.07 1.07 0 001.075 1.064h3.79v23.55H4.343v-23.55h36.965a1.07 1.07 0 001.074-1.064 1.07 1.07 0 00-1.074-1.064h-17.76V11.853a1.07 1.07 0 00-1.074-1.063 1.07 1.07 0 00-1.075 1.064v13.824H1.184a1.07 1.07 0 00-1.075 1.064 1.07 1.07 0 001.075 1.064h1.009v23.55h-1.01A1.07 1.07 0 00.11 52.42a1.07 1.07 0 001.075 1.064h51.994a1.07 1.07 0 001.074-1.064 1.07 1.07 0 00-1.074-1.064h-1.01v-23.55h20.215a1.07 1.07 0 001.075-1.064 1.07 1.07 0 00-1.075-1.064h-1.008V2.128h1.008z" fill="#C1C1C1"/><path d="M60.028 0h-39.64a1.07 1.07 0 00-1.074 1.064 1.07 1.07 0 001.075 1.064h1.009v4.76c0 .587.48 1.064 1.074 1.064a1.07 1.07 0 001.075-1.064v-4.76h36.48a1.07 1.07 0 001.075-1.064A1.07 1.07 0 0060.028 0zM7.432 31.778v15.605c0 .588.48 1.064 1.074 1.064a1.07 1.07 0 001.075-1.064V31.778a1.07 1.07 0 00-1.075-1.064 1.07 1.07 0 00-1.074 1.064zm5.336 0v15.605c0 .588.48 1.064 1.074 1.064a1.07 1.07 0 001.074-1.064V31.778a1.07 1.07 0 00-1.074-1.064 1.07 1.07 0 00-1.074 1.064zm5.336 0v15.605c0 .588.48 1.064 1.074 1.064a1.07 1.07 0 001.074-1.064V31.778a1.07 1.07 0 00-1.074-1.064 1.07 1.07 0 00-1.075 1.064zm5.334 0v15.605c0 .588.48 1.064 1.074 1.064a1.07 1.07 0 001.074-1.064V31.778a1.07 1.07 0 00-1.074-1.064 1.07 1.07 0 00-1.075 1.064zm5.335 0v15.605a1.07 1.07 0 001.075 1.064 1.07 1.07 0 001.074-1.064V31.778a1.07 1.07 0 00-1.074-1.064 1.07 1.07 0 00-1.075 1.064zm5.337 0v15.605c0 .588.48 1.064 1.074 1.064a1.07 1.07 0 001.074-1.064V31.778a1.07 1.07 0 00-1.074-1.064 1.07 1.07 0 00-1.075 1.064zm6.408-1.064a1.07 1.07 0 00-1.075 1.064v15.605a1.07 1.07 0 001.075 1.064 1.07 1.07 0 001.074-1.064V31.778a1.07 1.07 0 00-1.074-1.064zm5.338 17.733a1.07 1.07 0 001.074-1.064V31.778a1.07 1.07 0 00-1.074-1.064 1.07 1.07 0 00-1.075 1.064v15.605a1.07 1.07 0 001.075 1.064z" fill="#C1C1C1"/><path d="M26.639 6.1v15.606c0 .587.48 1.064 1.074 1.064a1.07 1.07 0 001.075-1.064V6.1a1.07 1.07 0 00-1.075-1.064A1.07 1.07 0 0026.64 6.1zm5.336 0v15.606c0 .587.48 1.064 1.074 1.064a1.07 1.07 0 001.075-1.064V6.1a1.07 1.07 0 00-1.075-1.064A1.07 1.07 0 0031.975 6.1zm5.335 0v15.606a1.07 1.07 0 001.075 1.064 1.07 1.07 0 001.074-1.064V6.1a1.07 1.07 0 00-1.074-1.064A1.07 1.07 0 0037.31 6.1zm7.483 0a1.07 1.07 0 00-1.074-1.064A1.07 1.07 0 0042.644 6.1v15.606a1.07 1.07 0 001.075 1.064 1.07 1.07 0 001.074-1.064V6.1zm3.185 0v15.606a1.07 1.07 0 001.075 1.064 1.07 1.07 0 001.074-1.064V6.1a1.07 1.07 0 00-1.074-1.064A1.07 1.07 0 0047.978 6.1zm5.337 0v15.606c0 .587.48 1.064 1.074 1.064a1.07 1.07 0 001.074-1.064V6.1a1.07 1.07 0 00-1.074-1.064A1.07 1.07 0 0053.314 6.1zm6.41-1.064A1.07 1.07 0 0058.65 6.1v15.606a1.07 1.07 0 001.075 1.064 1.07 1.07 0 001.074-1.064V6.1a1.07 1.07 0 00-1.074-1.064zm6.408 16.67V6.1a1.07 1.07 0 00-1.074-1.064A1.07 1.07 0 0063.984 6.1v15.606a1.07 1.07 0 001.075 1.064 1.07 1.07 0 001.074-1.064z" fill="#C1C1C1"/></svg>