<svg width="43" height="53" fill="none" xmlns="http://www.w3.org/2000/svg"><path d="M35.264 18.765c-.49-.152-.98-.295-1.473-.43v-5.028a.77.77 0 00-.773-.766.77.77 0 00-.774.766v4.633a45.192 45.192 0 00-20.875 0V9.397c0-2.458 2.016-4.458 4.494-4.458H27.75c2.478 0 4.494 2 4.494 4.458v.352a.77.77 0 00.774.766.77.77 0 00.773-.766v-.352c0-3.303-2.71-5.99-6.041-5.99h-3.471v-.94C24.279 1.107 23.16 0 21.787 0s-2.491 1.107-2.491 2.467v.94h-3.433c-3.331 0-6.041 2.687-6.041 5.99v8.938c-.478.13-.954.27-1.429.416a.765.765 0 00-.508.96.776.776 0 00.969.503l.138-.042a3.59 3.59 0 00-.497 1.876c.022 1.772 1.34 3.248 3.048 3.541-.01.154-.022.3-.036.435a8.794 8.794 0 00-.032.77c0 2.478 2.014 5.35 5.984 8.535.113.091.23.18.348.263-.023.72-.118 1.365-.273 1.865l-1.643 1.094c-1.552.196-5.185.774-8.494 2.171-1.971.833-3.539 1.836-4.658 2.982C1.33 45.147.615 46.82.615 48.678v2.864a.77.77 0 00.774.766.77.77 0 00.774-.766v-2.864c0-2.423 1.589-4.192 3.713-5.475v8.339a.77.77 0 00.774.766.77.77 0 00.774-.766v-9.153a23.476 23.476 0 012.992-1.118v10.27a.77.77 0 00.773.767.77.77 0 00.774-.766V40.846a37.25 37.25 0 013.374-.67l-.116 4.607a.763.763 0 00.306.63.778.778 0 00.695.121l5.406-1.645 5.405 1.645a.777.777 0 001-.751l-.115-4.598c1.298.197 3.199.56 5.179 1.194a.774.774 0 00.974-.493.765.765 0 00-.498-.966c-2.515-.805-4.901-1.192-6.193-1.358l-1.659-1.105c-.148-.475-.24-1.082-.27-1.76a6.31 6.31 0 00.5-.364c3.973-3.187 5.987-6.06 5.987-8.54 0-.266-.01-.526-.033-.783a13.558 13.558 0 01-.034-.421c1.707-.293 3.026-1.77 3.047-3.54a3.59 3.59 0 00-.541-1.951c.142.042.283.085.425.13a.773.773 0 00.97-.502.765.765 0 00-.508-.961zM20.844 2.467a.94.94 0 01.943-.935c.52 0 .944.42.944.935v.94h-1.888v-.94zm-9.248 21.565a2.12 2.12 0 01-1.554-2.003 2.118 2.118 0 011.42-2.015 50.46 50.46 0 01.134 4.018zm5.2 19.725l.1-4.029 1.062-.707 2.385 3.656-3.548 1.08zm4.832-1.935l-2.595-3.978c.142-.477.226-.983.273-1.46a6.761 6.761 0 002.387.438h.027c.765 0 1.521-.131 2.235-.381.048.46.13.944.267 1.403l-2.595 3.978zm4.73-2.094l.102 4.029-3.548-1.08 2.385-3.656 1.061.707zm4.006-13.578c.018.204.027.42.027.644 0 1.966-1.872 4.507-5.416 7.35a5.205 5.205 0 01-3.279 1.146 5.208 5.208 0 01-3.261-1.15c-3.54-2.84-5.412-5.38-5.412-7.347 0-.224.008-.438.025-.628.163-1.645.12-4.575-.103-7.004a43.612 43.612 0 0117.527-.04c-.225 2.435-.27 5.386-.108 7.03zm3.007-4.12a2.12 2.12 0 01-1.554 2.002 50.791 50.791 0 01.133-4.017 2.117 2.117 0 011.421 2.014zm-.437 26.468a.77.77 0 00-.774.766v2.278a.77.77 0 00.774.766.77.77 0 00.774-.766v-2.278a.77.77 0 00-.774-.766zm3.919-7.265a.777.777 0 00-1.04.34.763.763 0 00.343 1.028c3.168 1.583 4.775 3.627 4.775 6.077v2.864a.77.77 0 00.774.766.77.77 0 00.773-.766v-2.864c0-3.076-1.892-5.58-5.625-7.445z" fill="#C1C1C1"/><path d="M18.887 7.203a.77.77 0 00-.774.767v5.749a.77.77 0 00.774.766h5.801a.77.77 0 00.774-.766v-5.75a.77.77 0 00-.774-.766h-5.801zm5.028 5.75H19.66V8.735h1.353v.714a.77.77 0 00.774.766.77.77 0 00.773-.766v-.714h1.354v4.216zm-.211 16.035c-1.92 1.198-3.64.074-3.722.019a.778.778 0 00-1.074.19.761.761 0 00.19 1.067c.07.049 1.196.812 2.765.812.8 0 1.716-.199 2.666-.791a.762.762 0 00.242-1.057.779.779 0 00-1.067-.24zm-2.351-3.257a.939.939 0 01.983.02.775.775 0 001.067-.239.762.762 0 00-.242-1.057 2.488 2.488 0 00-2.697.021.761.761 0 00-.189 1.067.778.778 0 001.078.188zm.313 20.124a.77.77 0 00-.773.766.77.77 0 00.773.766.77.77 0 00.774-.766.77.77 0 00-.774-.766zm0 3.045a.77.77 0 00-.773.766.77.77 0 00.773.767.77.77 0 00.774-.767.77.77 0 00-.774-.766z" fill="#C1C1C1"/></svg>