<svg width="53" height="53" fill="none" xmlns="http://www.w3.org/2000/svg"><path d="M10.43 26.178c0 .423.343.766.766.766h3.172a.766.766 0 100-1.532h-3.172a.766.766 0 00-.766.766zm13.455.766h3.173a.766.766 0 100-1.532h-3.173a.766.766 0 100 1.532zm-7.11-.766c0 .423.344.766.767.766h3.172a.766.766 0 100-1.532h-3.172a.766.766 0 00-.767.766zm17.392 0a.766.766 0 00-.766-.766H30.23a.766.766 0 000 1.532h3.172a.766.766 0 00.766-.766zm6.344 0a.766.766 0 00-.766-.766h-3.172a.766.766 0 100 1.532h3.172a.766.766 0 00.766-.766zm-34.022.766h1.533a.766.766 0 000-1.532h-.767v-1.01a.766.766 0 10-1.532 0v1.776c0 .423.343.766.766.766zm37.985-1.532H42.94a.766.766 0 100 1.532h.767v1.01a.766.766 0 101.533 0v-1.776a.766.766 0 00-.766-.766zm-.001 4.848a.766.766 0 00-.766.766v1.945a.766.766 0 001.532 0v-1.945a.766.766 0 00-.766-.766zm-9.402 16.551h-2.043a.766.766 0 000 1.532h2.043a.766.766 0 100-1.532zm9.402-6.229a.766.766 0 00-.766.766v2.043a.766.766 0 101.532 0v-2.043a.766.766 0 00-.766-.766zm0-5.21a.766.766 0 00-.766.766v2.043a.766.766 0 001.532 0v-2.043a.766.766 0 00-.766-.766zm.001 10.42a.766.766 0 00-.766.767v.252h-.258a.766.766 0 000 1.532h1.024a.766.766 0 00.767-.766V46.56a.766.766 0 00-.767-.767zm-4.192 1.019H38.24a.766.766 0 100 1.532h2.043a.766.766 0 000-1.532zM6.489 11.985a.766.766 0 00.766-.766V9.175a.766.766 0 00-1.532 0v2.044c0 .423.343.766.766.766zm0 5.21a.766.766 0 00.766-.766v-2.043a.766.766 0 00-1.532 0v2.043c0 .423.343.766.766.766zm0 5.112a.766.766 0 00.766-.766v-1.945a.766.766 0 10-1.532 0v1.945c0 .423.343.766.766.766zm9.402-16.551h2.043a.766.766 0 000-1.532h-2.043a.766.766 0 000 1.532zM6.489 6.775a.766.766 0 00.766-.767v-.252h.258a.766.766 0 000-1.532H6.49a.766.766 0 00-.766.766v1.018c0 .424.343.767.766.767zm4.191-1.019h2.044a.766.766 0 000-1.532H10.68a.766.766 0 100 1.532zm15.602 29.849a.766.766 0 00-.665-.386h-2.17v-2.724a.766.766 0 00-.766-.767H7.663a.766.766 0 100 1.533h14.252v12.001a3.577 3.577 0 00-2.717 2.715h-8.401a3.572 3.572 0 00-3.483-2.798 3.572 3.572 0 00-3.484 2.798H1.841V33.261H4.08a.766.766 0 100-1.533H1.075a.766.766 0 00-.766.767v16.249c0 .423.343.766.766.766H3.83a3.572 3.572 0 003.484 2.798c1.703 0 3.131-1.2 3.483-2.798h8.4a3.572 3.572 0 003.484 2.798c1.703 0 3.131-1.2 3.483-2.798h2.69a.766.766 0 00.766-.766V41.64a.767.767 0 00-.101-.38l-3.237-5.657zM7.314 50.775a2.035 2.035 0 01-2.034-2.031 2.034 2.034 0 014.067 0c0 1.12-.912 2.032-2.033 2.032zm20.219-9.9h-4.086v-4.124h1.726l2.36 4.124zm-4.852 9.9a2.035 2.035 0 01-2.034-2.031 2.035 2.035 0 014.068 0c0 1.12-.913 2.032-2.034 2.032zm3.483-2.798a3.577 3.577 0 00-2.717-2.715v-2.855h4.64v5.57h-1.923z" fill="#C1C1C1"/><path d="M16.786 40.619a.842.842 0 00-.224-.542l-2.185-2.183a.766.766 0 00-1.083 1.084l.876.875H7.735a.766.766 0 000 1.532h6.435l-.876.875a.766.766 0 101.083 1.084l2.184-2.183c.234-.233.225-.54.225-.542zM52.515 9.532l-3.237-5.656a.766.766 0 00-.665-.385h-2.17V.766A.766.766 0 0045.677 0H42.94a.766.766 0 100 1.532h1.97v12.002a3.577 3.577 0 00-2.716 2.715h-8.401a3.572 3.572 0 00-3.483-2.798 3.572 3.572 0 00-3.483 2.798h-1.99V1.532h14.567a.766.766 0 000-1.532H24.072a.766.766 0 00-.766.766v16.25c0 .422.343.766.766.766h2.755a3.572 3.572 0 003.484 2.798c1.703 0 3.131-1.2 3.483-2.798h8.4a3.572 3.572 0 003.484 2.798c1.703 0 3.132-1.2 3.483-2.798h2.69a.766.766 0 00.766-.767V9.913a.767.767 0 00-.1-.38zM30.31 19.047a2.035 2.035 0 01-2.034-2.032 2.034 2.034 0 014.068 0c0 1.12-.913 2.032-2.034 2.032zm20.219-9.9h-4.086V5.023h1.726l2.36 4.124zm-4.852 9.9a2.035 2.035 0 01-2.034-2.032 2.035 2.035 0 014.068 0c0 1.12-.913 2.032-2.034 2.032zm3.483-2.798a3.577 3.577 0 00-2.717-2.715v-2.855h4.64v5.57H49.16z" fill="#C1C1C1"/><path d="M36.29 11.616a.764.764 0 001.083 0l2.183-2.182a.764.764 0 00.225-.505v-.002l.001-.017v-.057a.764.764 0 00-.228-.507l-2.18-2.18a.766.766 0 00-1.084 1.083l.876.876H30.73a.766.766 0 100 1.532h6.435l-.876.875c-.3.3-.3.785 0 1.084z" fill="#C1C1C1"/></svg>