<svg width="54" height="53" fill="none" xmlns="http://www.w3.org/2000/svg"><g clip-path="url(#clip0)" fill="#C1C1C1"><path d="M30.342 37.983a3.533 3.533 0 100 7.067 3.533 3.533 0 000-7.067zm0 5.3a1.767 1.767 0 110-3.533 1.767 1.767 0 010 3.533zm-21.2-3.533a2.65 2.65 0 100 5.3 2.65 2.65 0 000-5.3zm0 3.533a.883.883 0 110-1.766.883.883 0 010 1.766z"/><path d="M52.425 44.167h-.883V34.45a.883.883 0 00-.883-.884h-7.067a.883.883 0 00-.883.884v9.717h-1.767v-7.95a2.653 2.653 0 00-2.65-2.65h-.883v-26.5a2.653 2.653 0 00-2.65-2.65h-8.834a1.769 1.769 0 00-1.766 1.766v.884a2.653 2.653 0 002.65 2.65h4.416v12.795l-1.87-4.986a7.987 7.987 0 00-7.444-5.16h-9.236a2.653 2.653 0 00-2.65 2.65v10.6H6.492A6.19 6.19 0 00.309 31.8v8.833a2.653 2.653 0 002.65 2.65h.07a6.175 6.175 0 0012.226 0h8.253a7.058 7.058 0 0013.84-.883h1.827v2.65a.883.883 0 00.884.883h12.366a.883.883 0 100-1.766zM26.81 7.95a.884.884 0 01-.884-.883v-.884h5.3V7.95H26.81zm-11.484 6.183h6.587a6.21 6.21 0 015.789 4.013l3.524 9.398v6.967a6.84 6.84 0 00-3.878.614l-2.394-6.606a4.44 4.44 0 00-4.15-2.902h-5.478V14.133zm-3.533.884c0-.488.396-.883.883-.884h.884v11.484h-1.767v-10.6zm-2.65 31.8a4.417 4.417 0 110-8.834 4.417 4.417 0 010 8.834zm14.133-5.3h-8.02a6.175 6.175 0 00-12.226 0h-.07a.884.884 0 01-.884-.884V31.8a4.422 4.422 0 014.417-4.417h14.31a2.666 2.666 0 012.491 1.741l2.526 6.97a7.053 7.053 0 00-2.544 5.423zm7.067 5.3a5.3 5.3 0 110-10.6 5.3 5.3 0 010 10.6zm5.3-9.959a7.088 7.088 0 00-2.65-1.888V6.183h1.767c.487 0 .883.396.883.884v29.791zm3.533 3.775H37.41v-5.3h.883c.488 0 .883.396.883.884v4.416zm10.6 3.534h-5.3v-3.534h5.3v3.534zm0-5.3h-5.3v-3.534h5.3v3.534z"/></g><defs><clipPath id="clip0"><path fill="#fff" transform="translate(.309)" d="M0 0h53v53H0z"/></clipPath></defs></svg>