<svg width="24" height="24" fill="none" xmlns="http://www.w3.org/2000/svg"><path d="M12.003 0h-.006C5.38 0 0 5.382 0 12c0 2.625.846 5.058 2.284 7.034L.79 23.49l4.613-1.474a11.896 11.896 0 006.6 1.984C18.619 24 24 18.616 24 12c0-6.617-5.38-12-11.997-12z" fill="#fff"/><path d="M17.971 16.21c-.246.696-1.224 1.272-2.004 1.44-.533.114-1.23.205-3.576-.767-3.001-1.242-4.934-4.29-5.085-4.487-.144-.198-1.212-1.614-1.212-3.078 0-1.464.744-2.177 1.044-2.483.246-.251.653-.366 1.044-.366.126 0 .24.006.342.011.3.013.45.03.649.504.246.593.846 2.057.917 2.208.073.15.146.354.044.552-.096.204-.18.295-.33.468-.151.174-.294.306-.445.493-.138.162-.294.335-.12.635.174.293.773 1.271 1.657 2.057 1.14 1.014 2.064 1.338 2.394 1.476.247.102.54.078.72-.114.229-.246.511-.654.798-1.056.204-.288.462-.324.733-.222.276.096 1.735.817 2.035.966.3.15.497.222.57.348.072.126.072.72-.175 1.416z" fill="#D6190E"/></svg>