<svg width="22" height="22" fill="none" xmlns="http://www.w3.org/2000/svg"><path d="M11.003 0h-.006C4.932 0 0 4.934 0 11c0 2.406.775 4.636 2.094 6.447l-1.37 4.087 4.227-1.352A10.905 10.905 0 0011.003 22C17.068 22 22 17.065 22 11S17.068 0 11.003 0z" fill="#4CAF50"/><path d="M16.474 14.86c-.226.637-1.122 1.166-1.837 1.32-.49.104-1.128.187-3.279-.704-2.75-1.139-4.522-3.932-4.66-4.113-.133-.181-1.112-1.48-1.112-2.821 0-1.343.682-1.996.957-2.277.226-.23.6-.335.957-.335.116 0 .22.006.314.01.275.012.413.028.594.462.226.544.776 1.886.842 2.024.066.138.133.325.04.506-.088.187-.166.27-.304.43-.138.158-.269.28-.407.45-.126.149-.27.308-.11.583.16.269.71 1.165 1.519 1.886 1.045.93 1.892 1.226 2.195 1.352.226.094.495.072.66-.104.21-.225.468-.6.731-.968.187-.264.424-.297.672-.203.253.087 1.59.748 1.865.885.275.138.456.203.523.32.066.115.066.659-.16 1.297z" fill="#FAFAFA"/></svg>