<svg width="232" height="56" fill="none" xmlns="http://www.w3.org/2000/svg"><path d="M13.243 15.866c-1.856 0-3.585.424-5.103 1.23-.675.382-1.35.806-1.94 1.358v-11.2H0v36.612h6.2v-1.612c.632.509 1.307.976 2.024 1.315 1.434.721 3.163 1.06 5.06 1.06 3.628 0 6.58-1.357 8.773-3.987 2.151-2.588 3.205-6.067 3.205-10.31 0-4.327-1.096-7.848-3.247-10.478-2.235-2.63-5.188-3.988-8.772-3.988zm5.482 14.764c0 2.588-.59 4.624-1.771 6.066-1.139 1.4-2.615 2.08-4.597 2.08-2.024 0-3.543-.68-4.597-2.122-1.139-1.485-1.687-3.691-1.687-6.576 0-2.842.548-5.006 1.603-6.363 1.012-1.316 2.572-1.952 4.723-1.952 2.025 0 3.543.721 4.597 2.164 1.181 1.527 1.73 3.775 1.73 6.703zm34.163 8.06c-.169.042-.253.042-.338.042-.21 0-.337-.042-.421-.042-.042-.128-.127-.467-.127-1.443V24.69c0-3.012-.928-5.26-2.741-6.703-1.772-1.442-4.386-2.12-8.013-2.12-3.332 0-6.031.805-7.971 2.46-2.025 1.654-3.037 3.945-3.037 6.83v1.23h6.073v-1.06c0-1.188.338-2.079 1.055-2.63.801-.637 2.066-.934 3.753-.934 1.645 0 2.868.255 3.627.764.633.424.928 1.06.928 1.994 0 1.188-.127 1.485-.127 1.485s-.084.127-.421.254c-.127.043-.802.255-3.627.552-1.223.127-2.235.254-2.952.34-3.08.38-5.44 1.314-7.001 2.757-1.645 1.484-2.446 3.563-2.446 6.151 0 2.673.843 4.794 2.488 6.321 1.603 1.528 3.88 2.291 6.663 2.291 1.772 0 3.5-.382 5.103-1.145 1.013-.467 2.025-1.146 2.995-1.91.253.637.59 1.146 1.096 1.57.886.764 2.193 1.188 3.838 1.188.38 0 .802-.042 1.223-.085.422-.042.928-.17 1.476-.339l.76-.212v-5.346l-1.266.255c-.21 0-.422.043-.59.043zm-7.254-7.085v2.163c0 1.443-.59 2.588-1.772 3.564-1.265.976-2.91 1.485-4.892 1.485-1.18 0-2.066-.255-2.657-.764-.548-.467-.801-1.145-.801-2.079 0-.975.21-1.654.675-2.078.506-.51 1.434-.849 2.699-1.061.464-.085 1.139-.17 2.109-.297 1.94-.255 3.458-.552 4.639-.933zm20.24-21.933H59.59v7h-3.71v5.473h3.711v15.781c0 2.291.506 3.861 1.518 4.837 1.013.976 2.615 1.442 4.893 1.442.464 0 1.012-.042 1.602-.085.59-.084 1.223-.17 1.94-.297l.886-.17v-5.642l-1.139.085c-.548.043-.97.085-1.307.085-.338 0-.633.042-.844.042-.8 0-.97-.17-.97-.17s-.21-.296-.21-1.569v-14.34h4.47v-5.472h-4.47v-7h-.085zm20.287 12.473v-5.473h-4.47v-7h-6.284v7h-3.712v5.473h3.712v15.781c0 2.291.506 3.861 1.518 4.837 1.012.976 2.615 1.442 4.892 1.442.464 0 1.012-.042 1.603-.085.59-.084 1.223-.17 1.94-.297l.885-.17v-5.642l-1.138.085c-.549.043-.97.085-1.308.085-.337 0-.632.042-.843.042-.802 0-.97-.17-.97-.17s-.211-.296-.211-1.569v-14.34h4.386zm95.272 20.66v-15.4c0-2.546-.337-4.243-1.012-5.176-.675-.933-1.855-1.4-3.542-1.4-2.025 0-3.585.636-4.682 1.867-1.096 1.272-1.687 3.012-1.687 5.303v14.806h-4.259v-15.4c0-2.546-.338-4.243-1.012-5.176-.675-.933-1.856-1.4-3.543-1.4-1.982 0-3.585.636-4.681 1.91-1.139 1.272-1.687 3.011-1.687 5.26v14.806h-4.176V17.732h4.007v3.521c.928-1.4 2.024-2.46 3.289-3.14 1.266-.678 2.742-1.017 4.471-1.017 1.56 0 2.868.297 3.964.933 1.097.636 2.067 1.612 2.826 2.97 1.097-1.358 2.277-2.334 3.543-2.97 1.307-.636 2.783-.933 4.428-.933 1.603 0 3.036.297 4.217.89 1.181.595 2.109 1.443 2.742 2.546.337.636.632 1.4.759 2.291.168.89.253 2.29.253 4.2v15.781h-4.218zm28.299-3.351c-1.307 1.357-2.699 2.418-4.133 3.097a11.071 11.071 0 01-4.681 1.018c-2.531 0-4.513-.679-5.947-1.994-1.434-1.315-2.151-3.182-2.151-5.515 0-2.291.717-4.073 2.109-5.346 1.392-1.315 3.543-2.121 6.41-2.503.717-.085 1.73-.17 2.953-.34 2.108-.211 3.416-.423 3.922-.636.464-.17.801-.424.97-.72.169-.298.253-.977.253-1.995 0-1.273-.464-2.248-1.392-2.885-.928-.636-2.319-.975-4.217-.975-1.94 0-3.416.381-4.386 1.188-.97.763-1.476 1.951-1.476 3.478h-3.965v-.17c0-2.545.886-4.539 2.657-5.981 1.771-1.485 4.218-2.206 7.296-2.206 3.332 0 5.778.636 7.381 1.866 1.56 1.273 2.362 3.225 2.362 5.897V37.29c0 1.06.126 1.782.337 2.079.253.297.633.466 1.265.466.127 0 .295 0 .464-.042.169-.042.38-.042.633-.085v3.267c-.506.127-.97.254-1.35.297-.38.042-.759.085-1.096.085-1.392 0-2.447-.297-3.121-.934-.717-.594-1.055-1.527-1.055-2.757v-.212h-.042zm-.379-9.419c-1.097.594-3.037 1.103-5.736 1.443-.97.127-1.687.212-2.151.297-1.518.254-2.615.721-3.29 1.357-.674.637-1.012 1.613-1.012 2.843s.38 2.206 1.181 2.885c.759.678 1.898 1.018 3.332 1.018 2.235 0 4.091-.552 5.525-1.697 1.434-1.146 2.151-2.588 2.151-4.37v-3.776zm18.135 6.449c0 1.103.169 1.867.464 2.248.337.382.886.552 1.771.552.253 0 .549 0 .886-.042.337 0 .801-.043 1.35-.085v3.563c-.717.128-1.308.212-1.856.297-.548.043-1.054.085-1.476.085-1.982 0-3.332-.382-4.133-1.145-.802-.764-1.181-2.121-1.181-4.073v-16.8h-3.711v-3.352h3.711v-7h4.175v7h4.471v3.352h-4.471v15.4zM117.835 4.964c12.652 0 22.901 10.351 22.901 23.036 0 12.727-10.291 23.036-22.901 23.036-12.652 0-22.9-10.351-22.9-23.036 0-12.727 10.29-23.036 22.9-23.036zm0-4.964C102.441 0 90 12.515 90 28s12.441 28 27.835 28 27.835-12.515 27.835-28-12.441-28-27.835-28z" fill="#fff"/><path d="M129.645 24.097a.802.802 0 00-.675-.424h-10.375l1.729-13.363c.042-.425-.253-.849-.717-.891-.295-.043-.59.127-.759.34l-12.61 22.23c-.211.381-.127.848.253 1.102a.711.711 0 00.422.128h10.206l-1.392 13.406c-.042.424.295.806.717.848a.708.708 0 00.717-.382l12.399-22.23c.211-.212.211-.509.085-.764z" fill="#fff"/></svg>